<?xml version="1.0" standalone="no"?>
<!DOCTYPE svg PUBLIC "-//W3C//DTD SVG 20010904//EN"
 "http://www.w3.org/TR/2001/REC-SVG-20010904/DTD/svg10.dtd">
<svg version="1.0" xmlns="http://www.w3.org/2000/svg"
 width="510.000000pt" height="510.000000pt" viewBox="0 0 510.000000 510.000000"
 preserveAspectRatio="xMidYMid meet">
<metadata>
Created by potrace 1.11, written by Peter Selinger 2001-2013
</metadata>
<g transform="translate(0.000000,510.000000) scale(0.100000,-0.100000)"
fill="#000000" stroke="none">
<path d="M2475 5088 c-73 -26 -223 -173 -420 -413 -301 -366 -572 -836 -776
-1345 -58 -143 -59 -145 -95 -154 -44 -10 -100 -64 -109 -106 -10 -44 2 -95
29 -127 l24 -28 -53 -185 c-184 -647 -275 -1338 -275 -2084 0 -288 11 -381 24
-193 16 242 58 540 117 824 168 816 473 1456 880 1848 117 112 195 173 326
251 293 177 477 196 718 74 402 -202 769 -690 1024 -1362 170 -450 320 -1088
396 -1686 5 -39 10 -51 18 -43 16 16 21 367 8 606 -38 685 -146 1265 -362
1937 -11 32 -9 39 10 63 44 56 46 130 7 190 -17 26 -74 55 -108 55 -20 0 -29
15 -67 108 -190 461 -455 929 -746 1317 -111 148 -271 341 -327 396 -62 60
-165 84 -243 57z"/>
<path d="M2679 2439 l-152 -304 -48 100 c-27 55 -90 185 -139 289 -50 104 -92
187 -95 185 -2 -3 -20 -133 -40 -289 -20 -157 -39 -292 -41 -300 -3 -9 -70 54
-193 180 -104 107 -191 193 -193 190 -3 -3 2 -88 9 -188 8 -101 12 -186 10
-188 -3 -3 -62 27 -132 66 -70 39 -130 68 -132 66 -3 -2 36 -100 85 -218 49
-117 85 -214 81 -216 -4 -2 -87 22 -184 52 -97 31 -178 56 -181 56 -3 0 37
-62 88 -138 52 -75 97 -142 100 -148 7 -11 -238 16 -259 29 -19 12 -28 -90
-28 -338 l0 -230 28 -61 c18 -38 48 -80 80 -110 29 -27 46 -43 40 -35 -12 15
-15 12 122 168 l30 35 55 -122 c30 -67 57 -123 60 -125 4 -2 46 66 95 150 49
85 90 153 91 152 1 -1 33 -71 71 -155 38 -85 73 -154 77 -155 5 -1 43 61 85
138 42 77 81 148 87 157 8 15 26 -10 99 -142 50 -88 93 -160 96 -160 4 0 44
72 90 160 46 87 84 158 86 156 2 -2 55 -72 118 -155 l114 -153 78 156 78 156
94 -155 c52 -85 95 -155 96 -155 2 0 33 69 70 153 37 83 69 153 70 154 1 2 46
-67 100 -152 54 -86 101 -158 106 -160 4 -3 20 34 34 82 15 49 34 114 44 146
l17 57 24 -32 c14 -18 48 -65 76 -105 l51 -72 31 32 c17 18 44 59 59 92 l28
60 3 263 3 262 -151 0 -152 0 93 100 c121 130 173 190 168 195 -2 2 -88 -16
-192 -39 -103 -23 -187 -41 -187 -39 0 2 48 98 106 214 58 116 103 213 100
216 -2 3 -82 -32 -176 -77 -95 -44 -174 -80 -176 -78 -1 2 17 97 42 212 24
115 43 211 40 213 -2 2 -95 -92 -207 -209 -112 -117 -206 -212 -209 -211 -3 1
-21 140 -41 308 -20 168 -39 309 -42 312 -3 3 -74 -131 -158 -298z"/>
</g>
</svg>
