<svg xmlns="http://www.w3.org/2000/svg" width="117.41" height="169.8" viewBox="0 0 117.41 169.8"><title>Asset 1</title><g id="Layer_2" data-name="Layer 2"><g id="Layer_2-2" data-name="Layer 2"><path d="M.11,158s55,26,117,0c0,0,7.56-87.9-52.67-155.27A8,8,0,0,0,53,2.14C37.5,16.78-2.31,63.66.11,158Z" fill="#4e7b89"/><path d="M116.61,158.46C107.11,82.54,81,60,67.11,53.87a19.34,19.34,0,0,0-15.27-.08C3.27,74.07.61,158.46.61,158.46S57.11,184,116.61,158.46Z" fill="#d7ebf4"/><path d="M59.08,78.46H63a37.64,37.64,0,0,1,37.64,37.64v14.36a12,12,0,0,1-12,12h-62a12,12,0,0,1-12-12v-7.53A44.47,44.47,0,0,1,59.08,78.46Z" fill="#384e5a"/><path d="M59.08,78.46H63a37.64,37.64,0,0,1,37.64,37.64v14.36a12,12,0,0,1-12,12h-62a12,12,0,0,1-12-12v-7.53A44.47,44.47,0,0,1,59.08,78.46Z" fill="#384e5a"/><path d="M16,64.55a4.73,4.73,0,0,0-3.91,8.61Z"/><path d="M103.62,72.15a4.73,4.73,0,1,0-3.76-8.67Z"/><path d="M96.65,139.33l-5-6.87-3,10-7-11L77,142l-6.35-10.5L65.43,142l-7.82-10.5-5.79,11-6.21-11-6,11-5-11L28.53,142l-3.92-8.5-5.52,6.34s9,10.16,40,10.16S96.65,139.33,96.65,139.33Z" fill="#fff"/><path d="M100.61,116h-10l9.25-10-13.25,3,7.24-14.81L81.61,100,84.82,85,70.61,100,68,78.31,57.61,99,48.27,79.3,45.61,100l-13-13.21,1,13.21-9.32-5.13L30.61,110l-12.82-4,6.82,10-9.33-1.2S19.11,79.5,58.61,78C97.11,76.46,103.61,114,100.61,116Z" fill="#f5fafc"/></g></g></svg>